<svg width="145" height="50" viewBox="0 0 145 50" fill="none" xmlns="http://www.w3.org/2000/svg">
<path d="M1.77575 16.9387L9.25933 20.5555V16.9387H12.4938V43.7279L19.9139 46.364V9.76625H1.77575V16.9387Z" fill="#E57820"/>
<path d="M24.2898 47.9578V9.76625H31.5197V47.9578L27.9682 49.3065L24.2898 47.9578Z" fill="#E57820"/>
<path d="M46.6138 20.5555L54.0974 16.9387V9.76625H35.9592V46.364L43.3794 43.7279V16.9387H46.6138V20.5555Z" fill="#E57820"/>
<path d="M1.83918 6.63984L0 0.693481H56L54.1608 6.63984H1.83918Z" fill="#E57820"/>
<path d="M75.5979 26.9186H72V10.3805H79.835C80.5924 10.3805 81.2789 10.5069 81.8943 10.7596C82.5097 11.0123 83.0305 11.3756 83.4566 11.8495C83.8984 12.3076 84.2377 12.8604 84.4744 13.508C84.7111 14.1557 84.8295 14.8744 84.8295 15.6641C84.8295 16.7856 84.577 17.765 84.072 18.6021C83.5828 19.4393 82.8332 20.0474 81.8233 20.4265L85.0662 26.9186H81.0658L78.178 20.853H75.5979V26.9186ZM79.3852 17.8203C79.9218 17.8203 80.3399 17.686 80.6398 17.4175C80.9554 17.1331 81.1132 16.7225 81.1132 16.1854V15.1429C81.1132 14.6058 80.9554 14.203 80.6398 13.9345C80.3399 13.6502 79.9218 13.508 79.3852 13.508H75.5979V17.8203H79.3852Z" fill="#E57820"/>
<path d="M94.625 24.8335H94.5067C94.3962 25.1495 94.2463 25.4496 94.0569 25.7339C93.8833 26.0182 93.6545 26.2709 93.3705 26.4921C93.0864 26.7132 92.7471 26.887 92.3526 27.0133C91.9739 27.1397 91.5321 27.2029 91.0271 27.2029C89.7489 27.2029 88.7784 26.7843 88.1156 25.9471C87.4686 25.0942 87.1451 23.8779 87.1451 22.2983V14.4795H90.6484V21.9903C90.6484 22.7485 90.7825 23.3329 91.0508 23.7436C91.319 24.1543 91.7767 24.3597 92.4237 24.3597C92.6919 24.3597 92.9602 24.3202 93.2285 24.2412C93.4967 24.1622 93.7334 24.0517 93.9386 23.9095C94.1437 23.7515 94.3094 23.562 94.4356 23.3408C94.5619 23.1197 94.625 22.8591 94.625 22.559V14.4795H98.1283V26.9186H94.625V24.8335Z" fill="#E57820"/>
<path d="M100.914 26.9186V14.4795H104.418V16.5882H104.56C104.781 15.9248 105.159 15.364 105.696 14.906C106.232 14.4321 106.966 14.1952 107.897 14.1952C108.749 14.1952 109.475 14.4084 110.075 14.8349C110.675 15.2614 111.108 15.8853 111.377 16.7067H111.448C111.558 16.3592 111.724 16.0353 111.945 15.7352C112.182 15.4193 112.466 15.1508 112.797 14.9296C113.128 14.7085 113.499 14.5348 113.91 14.4084C114.32 14.2662 114.762 14.1952 115.235 14.1952C116.434 14.1952 117.35 14.6216 117.981 15.4746C118.628 16.3276 118.951 17.5438 118.951 19.1234V26.9186H115.448V19.4077C115.448 17.8282 114.88 17.0384 113.744 17.0384C113.223 17.0384 112.75 17.1884 112.324 17.4885C111.898 17.7887 111.684 18.2467 111.684 18.8628V26.9186H108.181V19.4077C108.181 17.8282 107.613 17.0384 106.477 17.0384C106.224 17.0384 105.972 17.0779 105.719 17.1568C105.483 17.22 105.262 17.3306 105.057 17.4885C104.867 17.6465 104.71 17.844 104.583 18.0809C104.473 18.302 104.418 18.5627 104.418 18.8628V26.9186H100.914Z" fill="#E57820"/>
<path d="M126.61 27.2029C125.679 27.2029 124.851 27.0528 124.125 26.7527C123.399 26.4368 122.791 26.0024 122.302 25.4496C121.813 24.8809 121.442 24.1938 121.19 23.3882C120.937 22.5827 120.811 21.6823 120.811 20.6872C120.811 19.692 120.937 18.7996 121.19 18.0098C121.442 17.2042 121.813 16.5171 122.302 15.9485C122.791 15.3798 123.399 14.9454 124.125 14.6453C124.851 14.3452 125.679 14.1952 126.61 14.1952C127.873 14.1952 128.922 14.4795 129.758 15.0481C130.61 15.6168 131.218 16.4144 131.581 17.4412L128.74 18.6732C128.63 18.1994 128.401 17.7966 128.054 17.4649C127.707 17.1331 127.226 16.9673 126.61 16.9673C125.9 16.9673 125.363 17.2042 125 17.6781C124.638 18.1362 124.456 18.7601 124.456 19.5499V21.8719C124.456 22.6616 124.638 23.2856 125 23.7436C125.363 24.2017 125.9 24.4308 126.61 24.4308C127.241 24.4308 127.738 24.2649 128.101 23.9332C128.48 23.5857 128.756 23.1355 128.93 22.5827L131.652 23.7673C131.242 24.952 130.603 25.8208 129.735 26.3736C128.882 26.9265 127.841 27.2029 126.61 27.2029Z" fill="#E57820"/>
<path d="M138.273 27.2029C137.358 27.2029 136.537 27.0528 135.811 26.7527C135.101 26.4526 134.494 26.0182 133.989 25.4496C133.499 24.8809 133.121 24.1938 132.852 23.3882C132.584 22.5827 132.45 21.6823 132.45 20.6872C132.45 19.692 132.584 18.7917 132.852 17.9861C133.121 17.1805 133.499 16.5013 133.989 15.9485C134.494 15.3798 135.101 14.9454 135.811 14.6453C136.537 14.3452 137.358 14.1952 138.273 14.1952C139.188 14.1952 140.001 14.3452 140.711 14.6453C141.437 14.9454 142.045 15.3798 142.534 15.9485C143.039 16.5013 143.425 17.1805 143.694 17.9861C143.962 18.7917 144.096 19.692 144.096 20.6872C144.096 21.6823 143.962 22.5827 143.694 23.3882C143.425 24.1938 143.039 24.8809 142.534 25.4496C142.045 26.0182 141.437 26.4526 140.711 26.7527C140.001 27.0528 139.188 27.2029 138.273 27.2029ZM138.273 24.4308C138.967 24.4308 139.504 24.2175 139.883 23.791C140.261 23.3645 140.451 22.7564 140.451 21.9666V19.4314C140.451 18.6416 140.261 18.0335 139.883 17.607C139.504 17.1805 138.967 16.9673 138.273 16.9673C137.579 16.9673 137.042 17.1805 136.663 17.607C136.285 18.0335 136.095 18.6416 136.095 19.4314V21.9666C136.095 22.7564 136.285 23.3645 136.663 23.791C137.042 24.2175 137.579 24.4308 138.273 24.4308Z" fill="#E57820"/>
<path d="M75.4316 39.6194C74.9378 39.6194 74.4905 39.5421 74.0897 39.3875C73.696 39.2259 73.3561 38.987 73.0698 38.6708C72.7907 38.3546 72.5759 37.9646 72.4256 37.5008C72.2753 37.03 72.2002 36.4854 72.2002 35.867C72.2002 35.2487 72.2753 34.7006 72.4256 34.2228C72.5759 33.7379 72.7907 33.3338 73.0698 33.0106C73.3561 32.6803 73.696 32.4309 74.0897 32.2622C74.4905 32.0936 74.9378 32.0093 75.4316 32.0093C76.1044 32.0093 76.6626 32.1498 77.1064 32.4309C77.5501 32.712 77.9044 33.1371 78.1692 33.7063L76.9561 34.3387C76.8487 34.0084 76.6734 33.7449 76.43 33.5482C76.1867 33.3444 75.8539 33.2425 75.4316 33.2425C74.902 33.2425 74.4797 33.4182 74.1648 33.7695C73.8571 34.1209 73.7032 34.6127 73.7032 35.2452V36.4046C73.7032 37.0441 73.8571 37.5359 74.1648 37.8803C74.4797 38.2175 74.902 38.3862 75.4316 38.3862C75.8539 38.3862 76.1974 38.2738 76.4622 38.0489C76.7342 37.824 76.931 37.5465 77.0527 37.2162L78.2014 37.8803C77.9294 38.4284 77.568 38.857 77.1171 39.1662C76.6662 39.4683 76.1044 39.6194 75.4316 39.6194Z" fill="#E57820"/>
<path d="M81.7614 39.6194C81.3606 39.6194 80.9991 39.5527 80.6771 39.4191C80.3622 39.2856 80.0902 39.0924 79.8612 38.8394C79.6393 38.5865 79.4675 38.2843 79.3458 37.933C79.2242 37.5746 79.1633 37.174 79.1633 36.7314C79.1633 36.2887 79.2242 35.8916 79.3458 35.5403C79.4675 35.1889 79.6393 34.8903 79.8612 34.6444C80.0902 34.3914 80.3622 34.1982 80.6771 34.0646C80.9991 33.9311 81.3606 33.8644 81.7614 33.8644C82.1622 33.8644 82.5236 33.9311 82.8457 34.0646C83.1677 34.1982 83.4397 34.3914 83.6616 34.6444C83.8906 34.8903 84.0659 35.1889 84.1876 35.5403C84.3093 35.8916 84.3701 36.2887 84.3701 36.7314C84.3701 37.174 84.3093 37.5746 84.1876 37.933C84.0659 38.2843 83.8906 38.5865 83.6616 38.8394C83.4397 39.0924 83.1677 39.2856 82.8457 39.4191C82.5236 39.5527 82.1622 39.6194 81.7614 39.6194ZM81.7614 38.5338C82.1264 38.5338 82.4127 38.4248 82.6202 38.207C82.8278 37.9892 82.9315 37.6694 82.9315 37.2478V36.2254C82.9315 35.8108 82.8278 35.4946 82.6202 35.2768C82.4127 35.059 82.1264 34.95 81.7614 34.95C81.4035 34.95 81.1208 35.059 80.9132 35.2768C80.7057 35.4946 80.6019 35.8108 80.6019 36.2254V37.2478C80.6019 37.6694 80.7057 37.9892 80.9132 38.207C81.1208 38.4248 81.4035 38.5338 81.7614 38.5338Z" fill="#E57820"/>
<path d="M85.8031 39.4929V33.9909H87.1772V34.9079H87.2309C87.3454 34.6127 87.5244 34.3668 87.7677 34.17C88.0182 33.9663 88.3617 33.8644 88.7983 33.8644C89.378 33.8644 89.8218 34.0506 90.1295 34.423C90.4373 34.7954 90.5912 35.326 90.5912 36.0146V39.4929H89.217V36.1516C89.217 35.7581 89.1454 35.463 89.0023 35.2662C88.8591 35.0695 88.623 34.9711 88.2937 34.9711C88.1506 34.9711 88.011 34.9922 87.875 35.0344C87.7462 35.0695 87.6281 35.1257 87.5208 35.203C87.4206 35.2733 87.3383 35.3646 87.2739 35.4771C87.2094 35.5825 87.1772 35.7089 87.1772 35.8565V39.4929H85.8031Z" fill="#E57820"/>
<path d="M94.165 39.6194C93.6282 39.6194 93.1773 39.5316 92.8123 39.3559C92.4473 39.1732 92.1252 38.9237 91.8461 38.6075L92.6834 37.8065C92.891 38.0384 93.1164 38.2211 93.3598 38.3546C93.6103 38.4881 93.8966 38.5548 94.2186 38.5548C94.5479 38.5548 94.784 38.4986 94.9272 38.3862C95.0775 38.2738 95.1526 38.1192 95.1526 37.9224C95.1526 37.7608 95.099 37.6343 94.9916 37.543C94.8914 37.4446 94.716 37.3778 94.4656 37.3427L93.9073 37.2689C93.2989 37.1916 92.8337 37.023 92.5117 36.763C92.1968 36.496 92.0393 36.1095 92.0393 35.6035C92.0393 35.3365 92.0894 35.0976 92.1896 34.8868C92.2898 34.669 92.4329 34.4863 92.619 34.3387C92.8051 34.1841 93.027 34.0682 93.2846 33.9909C93.5494 33.9065 93.8429 33.8644 94.165 33.8644C94.4369 33.8644 94.6767 33.8855 94.8842 33.9276C95.099 33.9628 95.2922 34.019 95.464 34.0963C95.6357 34.1665 95.7932 34.2579 95.9363 34.3703C96.0795 34.4757 96.219 34.5952 96.355 34.7287L95.5498 35.5192C95.3852 35.3506 95.1884 35.21 94.9594 35.0976C94.7304 34.9852 94.4799 34.929 94.2079 34.929C93.9073 34.929 93.689 34.9817 93.553 35.0871C93.4242 35.1925 93.3598 35.3295 93.3598 35.4981C93.3598 35.6808 93.4135 35.8214 93.5208 35.9197C93.6353 36.0111 93.825 36.0779 94.0898 36.12L94.6588 36.1938C95.8683 36.3624 96.4731 36.9035 96.4731 37.817C96.4731 38.084 96.4159 38.33 96.3013 38.5548C96.194 38.7727 96.0401 38.9624 95.8397 39.124C95.6393 39.2786 95.396 39.4016 95.1097 39.4929C94.8306 39.5772 94.5156 39.6194 94.165 39.6194Z" fill="#E57820"/>
<path d="M99.5672 39.4929C99.0949 39.4929 98.7334 39.3735 98.4829 39.1346C98.2396 38.8886 98.1179 38.5408 98.1179 38.0911V35.066H97.2913V33.9909H97.7207C97.9283 33.9909 98.0678 33.9452 98.1394 33.8538C98.2181 33.7555 98.2575 33.6114 98.2575 33.4217V32.4836H99.4921V33.9909H100.641V35.066H99.4921V38.4178H100.555V39.4929H99.5672Z" fill="#E57820"/>
<path d="M102.047 39.4929V33.9909H103.422V35.1292H103.475C103.511 34.9817 103.565 34.8411 103.636 34.7076C103.715 34.5671 103.815 34.4441 103.937 34.3387C104.059 34.2333 104.202 34.149 104.366 34.0857C104.538 34.0225 104.735 33.9909 104.957 33.9909H105.257V35.2662H104.828C104.363 35.2662 104.012 35.333 103.776 35.4665C103.54 35.6 103.422 35.8179 103.422 36.12V39.4929H102.047Z" fill="#E57820"/>
<path d="M109.826 38.5759H109.773C109.722 38.7165 109.654 38.85 109.569 38.9764C109.49 39.0959 109.386 39.2048 109.257 39.3032C109.136 39.4016 108.985 39.4789 108.806 39.5351C108.635 39.5913 108.434 39.6194 108.205 39.6194C107.625 39.6194 107.182 39.4332 106.874 39.0608C106.566 38.6883 106.412 38.1578 106.412 37.4692V33.9909H107.786V37.3322C107.786 37.7116 107.862 38.0032 108.012 38.207C108.162 38.4038 108.402 38.5021 108.731 38.5021C108.867 38.5021 109 38.4846 109.128 38.4494C109.264 38.4143 109.382 38.3616 109.483 38.2913C109.583 38.214 109.665 38.1227 109.73 38.0173C109.794 37.9048 109.826 37.7748 109.826 37.6273V33.9909H111.2V39.4929H109.826V38.5759Z" fill="#E57820"/>
<path d="M115.214 39.6194C114.799 39.6194 114.431 39.5527 114.109 39.4191C113.786 39.2856 113.515 39.0924 113.293 38.8394C113.078 38.5865 112.913 38.2843 112.799 37.933C112.684 37.5746 112.627 37.174 112.627 36.7314C112.627 36.2887 112.684 35.8916 112.799 35.5403C112.913 35.1889 113.078 34.8903 113.293 34.6444C113.515 34.3914 113.786 34.1982 114.109 34.0646C114.431 33.9311 114.799 33.8644 115.214 33.8644C115.78 33.8644 116.245 33.9873 116.61 34.2333C116.982 34.4792 117.251 34.82 117.415 35.2557L116.288 35.7511C116.223 35.5192 116.102 35.3295 115.923 35.1819C115.751 35.0273 115.515 34.95 115.214 34.95C114.828 34.95 114.538 35.0695 114.345 35.3084C114.159 35.5473 114.066 35.86 114.066 36.2465V37.2478C114.066 37.6343 114.159 37.947 114.345 38.1859C114.538 38.4178 114.828 38.5338 115.214 38.5338C115.544 38.5338 115.798 38.4529 115.977 38.2913C116.155 38.1227 116.295 37.9154 116.395 37.6694L117.447 38.1648C117.261 38.6497 116.979 39.0151 116.599 39.261C116.22 39.5 115.758 39.6194 115.214 39.6194Z" fill="#E57820"/>
<path d="M120.472 39.4929C119.999 39.4929 119.638 39.3735 119.387 39.1346C119.144 38.8886 119.022 38.5408 119.022 38.0911V35.066H118.196V33.9909H118.625C118.833 33.9909 118.972 33.9452 119.044 33.8538C119.122 33.7555 119.162 33.6114 119.162 33.4217V32.4836H120.396V33.9909H121.545V35.066H120.396V38.4178H121.459V39.4929H120.472Z" fill="#E57820"/>
<path d="M125.132 39.6194C124.731 39.6194 124.37 39.5527 124.048 39.4191C123.733 39.2856 123.461 39.0924 123.232 38.8394C123.01 38.5865 122.838 38.2843 122.717 37.933C122.595 37.5746 122.534 37.174 122.534 36.7314C122.534 36.2887 122.595 35.8916 122.717 35.5403C122.838 35.1889 123.01 34.8903 123.232 34.6444C123.461 34.3914 123.733 34.1982 124.048 34.0646C124.37 33.9311 124.731 33.8644 125.132 33.8644C125.533 33.8644 125.894 33.9311 126.216 34.0646C126.538 34.1982 126.81 34.3914 127.032 34.6444C127.261 34.8903 127.437 35.1889 127.558 35.5403C127.68 35.8916 127.741 36.2887 127.741 36.7314C127.741 37.174 127.68 37.5746 127.558 37.933C127.437 38.2843 127.261 38.5865 127.032 38.8394C126.81 39.0924 126.538 39.2856 126.216 39.4191C125.894 39.5527 125.533 39.6194 125.132 39.6194ZM125.132 38.5338C125.497 38.5338 125.783 38.4248 125.991 38.207C126.198 37.9892 126.302 37.6694 126.302 37.2478V36.2254C126.302 35.8108 126.198 35.4946 125.991 35.2768C125.783 35.059 125.497 34.95 125.132 34.95C124.774 34.95 124.491 35.059 124.284 35.2768C124.076 35.4946 123.973 35.8108 123.973 36.2254V37.2478C123.973 37.6694 124.076 37.9892 124.284 38.207C124.491 38.4248 124.774 38.5338 125.132 38.5338Z" fill="#E57820"/>
<path d="M129.174 39.4929V33.9909H130.548V35.1292H130.602C130.637 34.9817 130.691 34.8411 130.763 34.7076C130.841 34.5671 130.942 34.4441 131.063 34.3387C131.185 34.2333 131.328 34.149 131.493 34.0857C131.664 34.0225 131.861 33.9909 132.083 33.9909H132.384V35.2662H131.954C131.489 35.2662 131.138 35.333 130.902 35.4665C130.666 35.6 130.548 35.8179 130.548 36.12V39.4929H129.174Z" fill="#E57820"/>
<path d="M135.816 39.6194C135.401 39.6194 135.029 39.5527 134.699 39.4191C134.377 39.2786 134.102 39.0854 133.873 38.8394C133.651 38.5865 133.479 38.2843 133.357 37.933C133.236 37.5746 133.175 37.174 133.175 36.7314C133.175 36.2957 133.232 35.9022 133.347 35.5508C133.468 35.1995 133.64 34.9008 133.862 34.6549C134.084 34.4019 134.356 34.2087 134.678 34.0752C135 33.9346 135.365 33.8644 135.773 33.8644C136.209 33.8644 136.589 33.9382 136.911 34.0857C137.233 34.2333 137.498 34.4336 137.705 34.6865C137.913 34.9395 138.067 35.2346 138.167 35.5719C138.274 35.9022 138.328 36.257 138.328 36.6365V37.0792H134.603V37.2162C134.603 37.6167 134.717 37.94 134.946 38.1859C135.175 38.4248 135.515 38.5443 135.966 38.5443C136.31 38.5443 136.589 38.474 136.804 38.3335C137.025 38.1929 137.222 38.0138 137.394 37.7959L138.135 38.6075C137.906 38.9237 137.591 39.1732 137.19 39.3559C136.796 39.5316 136.338 39.6194 135.816 39.6194ZM135.794 34.8763C135.429 34.8763 135.139 34.9957 134.925 35.2346C134.71 35.4735 134.603 35.7827 134.603 36.1622V36.2465H136.9V36.1516C136.9 35.7722 136.804 35.4665 136.61 35.2346C136.424 34.9957 136.152 34.8763 135.794 34.8763Z" fill="#E57820"/>
<path d="M141.587 39.6194C141.051 39.6194 140.6 39.5316 140.235 39.3559C139.87 39.1732 139.548 38.9237 139.269 38.6075L140.106 37.8065C140.314 38.0384 140.539 38.2211 140.782 38.3546C141.033 38.4881 141.319 38.5548 141.641 38.5548C141.97 38.5548 142.207 38.4986 142.35 38.3862C142.5 38.2738 142.575 38.1192 142.575 37.9224C142.575 37.7608 142.521 37.6343 142.414 37.543C142.314 37.4446 142.139 37.3778 141.888 37.3427L141.33 37.2689C140.721 37.1916 140.256 37.023 139.934 36.763C139.619 36.496 139.462 36.1095 139.462 35.6035C139.462 35.3365 139.512 35.0976 139.612 34.8868C139.712 34.669 139.855 34.4863 140.042 34.3387C140.228 34.1841 140.45 34.0682 140.707 33.9909C140.972 33.9065 141.265 33.8644 141.587 33.8644C141.859 33.8644 142.099 33.8855 142.307 33.9276C142.521 33.9628 142.715 34.019 142.886 34.0963C143.058 34.1665 143.216 34.2579 143.359 34.3703C143.502 34.4757 143.642 34.5952 143.778 34.7287L142.972 35.5192C142.808 35.3506 142.611 35.21 142.382 35.0976C142.153 34.9852 141.902 34.929 141.63 34.929C141.33 34.929 141.112 34.9817 140.976 35.0871C140.847 35.1925 140.782 35.3295 140.782 35.4981C140.782 35.6808 140.836 35.8214 140.943 35.9197C141.058 36.0111 141.248 36.0779 141.512 36.12L142.081 36.1938C143.291 36.3624 143.896 36.9035 143.896 37.817C143.896 38.084 143.838 38.33 143.724 38.5548C143.617 38.7727 143.463 38.9624 143.262 39.124C143.062 39.2786 142.819 39.4016 142.532 39.4929C142.253 39.5772 141.938 39.6194 141.587 39.6194Z" fill="#E57820"/>
</svg>
