<svg width="25" height="26" viewBox="0 0 25 26" fill="none" xmlns="http://www.w3.org/2000/svg">
<g id="alert-triangle">
<path id="Icon" d="M12.4997 9.875V14.0417M12.4997 18.2083H12.5101M11.0573 4.55387L2.4897 19.3524C2.01448 20.1733 1.77688 20.5837 1.81199 20.9205C1.84263 21.2143 1.99655 21.4813 2.23547 21.655C2.50938 21.8542 2.98361 21.8542 3.93208 21.8542H21.0673C22.0157 21.8542 22.4899 21.8542 22.7639 21.655C23.0028 21.4813 23.1567 21.2143 23.1873 20.9205C23.2224 20.5837 22.9848 20.1733 22.5096 19.3524L13.942 4.55387C13.4685 3.73599 13.2318 3.32705 12.9229 3.18971C12.6535 3.0699 12.3459 3.0699 12.0764 3.18971C11.7676 3.32705 11.5308 3.73599 11.0573 4.55387Z" stroke="#B85607" stroke-linecap="round" stroke-linejoin="round"/>
</g>
</svg>
