<svg width="91" height="92" viewBox="0 0 41 42" fill="none" xmlns="http://www.w3.org/2000/svg">
<path d="M8.98027 6.96222L12.1875 8.51231V6.96222H13.5737V18.4433L16.7538 19.5731V3.88833H8.98027V6.96222Z" fill="#F0F6FA"/>
<path d="M18.6292 20.2562V3.88833H21.7277V20.2562L20.2056 20.8342L18.6292 20.2562Z" fill="#F0F6FA"/>
<path d="M28.1966 8.51231L31.4038 6.96222V3.88833H23.6303V19.5731L26.8104 18.4433V6.96222H28.1966V8.51231Z" fill="#F0F6FA"/>
<path d="M9.00746 2.54844L8.21924 0H32.2192L31.431 2.54844H9.00746Z" fill="#F0F6FA"/>
<path d="M2.21543 34.0097H0.219238V24.8341H4.5662C4.98645 24.8341 5.3673 24.9042 5.70876 25.0444C6.05021 25.1847 6.33913 25.3862 6.57552 25.6491C6.82067 25.9033 7.00891 26.21 7.14023 26.5693C7.27156 26.9286 7.33723 27.3274 7.33723 27.7656C7.33723 28.3878 7.19714 28.9311 6.91698 29.3956C6.64557 29.8601 6.22969 30.1975 5.66936 30.4078L7.46856 34.0097H5.24911L3.6469 30.6444H2.21543V34.0097ZM4.31668 28.9618C4.61436 28.9618 4.84637 28.8873 5.01272 28.7383C5.18782 28.5806 5.27537 28.3527 5.27537 28.0548V27.4764C5.27537 27.1784 5.18782 26.9549 5.01272 26.8059C4.84637 26.6482 4.61436 26.5693 4.31668 26.5693H2.21543V28.9618H4.31668Z" fill="#F0F6FA"/>
<path d="M12.772 32.8529H12.7063C12.645 33.0282 12.5618 33.1947 12.4568 33.3524C12.3605 33.5102 12.2335 33.6504 12.0759 33.7731C11.9183 33.8958 11.7301 33.9922 11.5112 34.0623C11.3011 34.1324 11.0559 34.1674 10.7758 34.1674C10.0666 34.1674 9.52815 33.9352 9.16043 33.4707C8.80147 32.9975 8.62199 32.3227 8.62199 31.4463V27.1083H10.5656V31.2754C10.5656 31.6961 10.6401 32.0203 10.7889 32.2482C10.9377 32.476 11.1916 32.59 11.5506 32.59C11.6994 32.59 11.8483 32.5681 11.9971 32.5242C12.146 32.4804 12.2773 32.4191 12.3911 32.3402C12.5049 32.2526 12.5969 32.1474 12.6669 32.0247C12.7369 31.902 12.772 31.7574 12.772 31.5909V27.1083H14.7156V34.0097H12.772V32.8529Z" fill="#F0F6FA"/>
<path d="M16.2614 34.0097V27.1083H18.205V28.2782H18.2838C18.4064 27.9102 18.6165 27.5991 18.9142 27.3449C19.2119 27.082 19.619 26.9505 20.1356 26.9505C20.6084 26.9505 21.0111 27.0688 21.3438 27.3055C21.6765 27.5421 21.9173 27.8883 22.0661 28.344H22.1055C22.1668 28.1512 22.2587 27.9715 22.3813 27.805C22.5126 27.6297 22.6702 27.4807 22.8541 27.3581C23.0379 27.2354 23.2437 27.139 23.4713 27.0688C23.6989 26.99 23.9441 26.9505 24.2067 26.9505C24.8721 26.9505 25.3799 27.1872 25.7302 27.6604C26.0891 28.1336 26.2686 28.8084 26.2686 29.6848V34.0097H24.3249V29.8426C24.3249 28.9662 24.0098 28.528 23.3794 28.528C23.0905 28.528 22.8278 28.6113 22.5914 28.7778C22.355 28.9443 22.2368 29.1984 22.2368 29.5402V34.0097H20.2932V29.8426C20.2932 28.9662 19.978 28.528 19.3476 28.528C19.2075 28.528 19.0674 28.5499 18.9274 28.5937C18.796 28.6288 18.6735 28.6901 18.5596 28.7778C18.4546 28.8654 18.367 28.975 18.297 29.1064C18.2357 29.2291 18.205 29.3737 18.205 29.5402V34.0097H16.2614Z" fill="#F0F6FA"/>
<path d="M30.5178 34.1674C30.0012 34.1674 29.5416 34.0842 29.1388 33.9177C28.7361 33.7424 28.399 33.5014 28.1276 33.1947C27.8562 32.8792 27.6505 32.498 27.5104 32.051C27.3703 31.6041 27.3002 31.1045 27.3002 30.5524C27.3002 30.0003 27.3703 29.5052 27.5104 29.067C27.6505 28.62 27.8562 28.2388 28.1276 27.9233C28.399 27.6078 28.7361 27.3668 29.1388 27.2003C29.5416 27.0338 30.0012 26.9505 30.5178 26.9505C31.2182 26.9505 31.8004 27.1083 32.2645 27.4238C32.7372 27.7393 33.0743 28.1818 33.2757 28.7515L31.6997 29.435C31.6385 29.1721 31.5115 28.9487 31.3189 28.7646C31.1263 28.5806 30.8592 28.4886 30.5178 28.4886C30.1238 28.4886 29.8261 28.62 29.6248 28.8829C29.4234 29.1371 29.3227 29.4832 29.3227 29.9214V31.2097C29.3227 31.6479 29.4234 31.994 29.6248 32.2482C29.8261 32.5023 30.1238 32.6294 30.5178 32.6294C30.868 32.6294 31.1438 32.5374 31.3452 32.3534C31.5553 32.1606 31.7085 31.9108 31.8048 31.6041L33.3151 32.2613C33.0874 32.9186 32.7329 33.4006 32.2513 33.7073C31.7785 34.0141 31.2007 34.1674 30.5178 34.1674Z" fill="#F0F6FA"/>
<path d="M36.9886 34.1674C36.4808 34.1674 36.0255 34.0842 35.6228 33.9177C35.2288 33.7512 34.8917 33.5102 34.6115 33.1947C34.3401 32.8792 34.13 32.498 33.9812 32.051C33.8323 31.6041 33.7579 31.1045 33.7579 30.5524C33.7579 30.0003 33.8323 29.5008 33.9812 29.0538C34.13 28.6069 34.3401 28.23 34.6115 27.9233C34.8917 27.6078 35.2288 27.3668 35.6228 27.2003C36.0255 27.0338 36.4808 26.9505 36.9886 26.9505C37.4964 26.9505 37.9473 27.0338 38.3413 27.2003C38.744 27.3668 39.0811 27.6078 39.3525 27.9233C39.6326 28.23 39.8471 28.6069 39.996 29.0538C40.1448 29.5008 40.2192 30.0003 40.2192 30.5524C40.2192 31.1045 40.1448 31.6041 39.996 32.051C39.8471 32.498 39.6326 32.8792 39.3525 33.1947C39.0811 33.5102 38.744 33.7512 38.3413 33.9177C37.9473 34.0842 37.4964 34.1674 36.9886 34.1674ZM36.9886 32.6294C37.3738 32.6294 37.6715 32.5111 37.8816 32.2745C38.0917 32.0379 38.1968 31.7005 38.1968 31.2623V29.8557C38.1968 29.4175 38.0917 29.0801 37.8816 28.8435C37.6715 28.6069 37.3738 28.4886 36.9886 28.4886C36.6033 28.4886 36.3057 28.6069 36.0955 28.8435C35.8854 29.0801 35.7803 29.4175 35.7803 29.8557V31.2623C35.7803 31.7005 35.8854 32.0379 36.0955 32.2745C36.3057 32.5111 36.6033 32.6294 36.9886 32.6294Z" fill="#F0F6FA"/>
<path d="M2.12317 41.0563C1.84918 41.0563 1.601 41.0134 1.37863 40.9277C1.16023 40.838 0.971617 40.7055 0.812782 40.53C0.657919 40.3546 0.538793 40.1382 0.455405 39.8809C0.372016 39.6197 0.330322 39.3175 0.330322 38.9745C0.330322 38.6314 0.372016 38.3273 0.455405 38.0622C0.538793 37.7932 0.657919 37.569 0.812782 37.3897C0.971617 37.2064 1.16023 37.068 1.37863 36.9745C1.601 36.8809 1.84918 36.8341 2.12317 36.8341C2.49643 36.8341 2.80616 36.9121 3.05235 37.068C3.29854 37.224 3.4951 37.4598 3.64202 37.7756L2.96896 38.1265C2.9094 37.9433 2.81211 37.7971 2.6771 37.6879C2.54209 37.5748 2.35745 37.5183 2.12317 37.5183C1.82932 37.5183 1.59504 37.6158 1.42032 37.8107C1.24958 38.0056 1.1642 38.2786 1.1642 38.6294V39.2727C1.1642 39.6275 1.24958 39.9004 1.42032 40.0914C1.59504 40.2786 1.82932 40.3721 2.12317 40.3721C2.35745 40.3721 2.54805 40.3097 2.69497 40.185C2.84587 40.0602 2.95506 39.9062 3.02257 39.723L3.65989 40.0914C3.509 40.3955 3.30847 40.6333 3.05831 40.8049C2.80814 40.9725 2.49643 41.0563 2.12317 41.0563Z" fill="#F0F6FA"/>
<path d="M5.63501 41.0563C5.41264 41.0563 5.21211 41.0193 5.03342 40.9452C4.85871 40.8711 4.70781 40.7639 4.58074 40.6236C4.45765 40.4832 4.36235 40.3156 4.29484 40.1207C4.22734 39.9218 4.19359 39.6996 4.19359 39.454C4.19359 39.2084 4.22734 38.9881 4.29484 38.7932C4.36235 38.5982 4.45765 38.4325 4.58074 38.2961C4.70781 38.1557 4.85871 38.0485 5.03342 37.9745C5.21211 37.9004 5.41264 37.8633 5.63501 37.8633C5.85738 37.8633 6.05791 37.9004 6.2366 37.9745C6.41528 38.0485 6.56618 38.1557 6.68927 38.2961C6.81634 38.4325 6.91363 38.5982 6.98113 38.7932C7.04864 38.9881 7.08239 39.2084 7.08239 39.454C7.08239 39.6996 7.04864 39.9218 6.98113 40.1207C6.91363 40.3156 6.81634 40.4832 6.68927 40.6236C6.56618 40.7639 6.41528 40.8711 6.2366 40.9452C6.05791 41.0193 5.85738 41.0563 5.63501 41.0563ZM5.63501 40.454C5.83752 40.454 5.99636 40.3936 6.11151 40.2727C6.22667 40.1518 6.28425 39.9745 6.28425 39.7405V39.1733C6.28425 38.9433 6.22667 38.7678 6.11151 38.647C5.99636 38.5261 5.83752 38.4657 5.63501 38.4657C5.43647 38.4657 5.27962 38.5261 5.16446 38.647C5.04931 38.7678 4.99173 38.9433 4.99173 39.1733V39.7405C4.99173 39.9745 5.04931 40.1518 5.16446 40.2727C5.27962 40.3936 5.43647 40.454 5.63501 40.454Z" fill="#F0F6FA"/>
<path d="M7.87742 40.9862V37.9335H8.63982V38.4423H8.6696C8.73314 38.2786 8.83241 38.1421 8.96742 38.0329C9.1064 37.9199 9.297 37.8633 9.53922 37.8633C9.86086 37.8633 10.1071 37.9667 10.2778 38.1733C10.4486 38.3799 10.5339 38.6743 10.5339 39.0563V40.9862H9.77152V39.1324C9.77152 38.914 9.73181 38.7503 9.65239 38.6411C9.57298 38.532 9.44194 38.4774 9.25928 38.4774C9.17986 38.4774 9.10243 38.4891 9.02698 38.5125C8.95551 38.532 8.88999 38.5632 8.83042 38.606C8.77483 38.645 8.72917 38.6957 8.69343 38.7581C8.65769 38.8166 8.63982 38.8867 8.63982 38.9686V40.9862H7.87742Z" fill="#F0F6FA"/>
<path d="M12.5167 41.0563C12.2189 41.0563 11.9687 41.0076 11.7662 40.9101C11.5637 40.8088 11.385 40.6704 11.2302 40.4949L11.6948 40.0505C11.8099 40.1791 11.935 40.2805 12.07 40.3546C12.209 40.4286 12.3678 40.4657 12.5465 40.4657C12.7292 40.4657 12.8602 40.4345 12.9396 40.3721C13.023 40.3097 13.0647 40.224 13.0647 40.1148C13.0647 40.0251 13.0349 39.955 12.9754 39.9043C12.9198 39.8497 12.8225 39.8127 12.6835 39.7932L12.3738 39.7522C12.0362 39.7094 11.7781 39.6158 11.5995 39.4715C11.4247 39.3234 11.3374 39.109 11.3374 38.8283C11.3374 38.6801 11.3652 38.5476 11.4208 38.4306C11.4764 38.3097 11.5558 38.2084 11.659 38.1265C11.7623 38.0407 11.8854 37.9764 12.0283 37.9335C12.1752 37.8867 12.338 37.8633 12.5167 37.8633C12.6676 37.8633 12.8006 37.875 12.9158 37.8984C13.0349 37.9179 13.1421 37.9491 13.2374 37.992C13.3327 38.031 13.4201 38.0817 13.4995 38.144C13.5789 38.2025 13.6564 38.2688 13.7318 38.3429L13.2851 38.7815C13.1938 38.6879 13.0846 38.6099 12.9575 38.5476C12.8304 38.4852 12.6914 38.454 12.5405 38.454C12.3738 38.454 12.2527 38.4832 12.1772 38.5417C12.1057 38.6002 12.07 38.6762 12.07 38.7698C12.07 38.8711 12.0998 38.9491 12.1593 39.0037C12.2229 39.0544 12.3281 39.0914 12.475 39.1148L12.7907 39.1557C13.4618 39.2493 13.7973 39.5495 13.7973 40.0563C13.7973 40.2045 13.7656 40.3409 13.702 40.4657C13.6425 40.5865 13.5571 40.6918 13.4459 40.7815C13.3347 40.8672 13.1997 40.9355 13.0409 40.9862C12.886 41.0329 12.7113 41.0563 12.5167 41.0563Z" fill="#F0F6FA"/>
<path d="M15.514 40.9862C15.2519 40.9862 15.0514 40.9199 14.9124 40.7873C14.7774 40.6509 14.7099 40.4579 14.7099 40.2084V38.53H14.2513V37.9335H14.4895C14.6047 37.9335 14.6821 37.9082 14.7218 37.8575C14.7655 37.8029 14.7873 37.723 14.7873 37.6177V37.0973H15.4723V37.9335H16.1096V38.53H15.4723V40.3897H16.062V40.9862H15.514Z" fill="#F0F6FA"/>
<path d="M16.89 40.9862V37.9335H17.6524V38.5651H17.6822C17.7021 38.4832 17.7319 38.4053 17.7716 38.3312C17.8153 38.2532 17.8708 38.185 17.9383 38.1265C18.0059 38.068 18.0853 38.0212 18.1766 37.9862C18.2719 37.9511 18.3811 37.9335 18.5042 37.9335H18.671V38.6411H18.4327C18.1746 38.6411 17.98 38.6782 17.849 38.7522C17.718 38.8263 17.6524 38.9472 17.6524 39.1148V40.9862H16.89Z" fill="#F0F6FA"/>
<path d="M21.2058 40.4774H21.1761C21.1483 40.5554 21.1105 40.6294 21.0629 40.6996C21.0192 40.7659 20.9616 40.8263 20.8902 40.8809C20.8227 40.9355 20.7393 40.9784 20.64 41.0095C20.5447 41.0407 20.4335 41.0563 20.3064 41.0563C19.9848 41.0563 19.7386 40.953 19.5679 40.7464C19.3971 40.5398 19.3117 40.2454 19.3117 39.8633V37.9335H20.0741V39.7873C20.0741 39.9979 20.1158 40.1596 20.1992 40.2727C20.2826 40.3819 20.4156 40.4364 20.5983 40.4364C20.6737 40.4364 20.7472 40.4267 20.8187 40.4072C20.8941 40.3877 20.9596 40.3585 21.0152 40.3195C21.0708 40.2766 21.1165 40.2259 21.1522 40.1674C21.188 40.1051 21.2058 40.0329 21.2058 39.9511V37.9335H21.9682V40.9862H21.2058V40.4774Z" fill="#F0F6FA"/>
<path d="M24.1953 41.0563C23.9649 41.0563 23.7604 41.0193 23.5818 40.9452C23.4031 40.8711 23.2522 40.7639 23.1291 40.6236C23.0099 40.4832 22.9186 40.3156 22.8551 40.1207C22.7915 39.9218 22.7598 39.6996 22.7598 39.454C22.7598 39.2084 22.7915 38.9881 22.8551 38.7932C22.9186 38.5982 23.0099 38.4325 23.1291 38.2961C23.2522 38.1557 23.4031 38.0485 23.5818 37.9745C23.7604 37.9004 23.9649 37.8633 24.1953 37.8633C24.5089 37.8633 24.7671 37.9316 24.9696 38.068C25.1761 38.2045 25.325 38.3936 25.4163 38.6353L24.7909 38.9101C24.7551 38.7815 24.6876 38.6762 24.5884 38.5943C24.4931 38.5086 24.362 38.4657 24.1953 38.4657C23.9808 38.4657 23.82 38.532 23.7128 38.6645C23.6095 38.7971 23.5579 38.9706 23.5579 39.185V39.7405C23.5579 39.955 23.6095 40.1285 23.7128 40.261C23.82 40.3897 23.9808 40.454 24.1953 40.454C24.3779 40.454 24.5189 40.4092 24.6181 40.3195C24.7174 40.2259 24.7949 40.1109 24.8504 39.9745L25.4342 40.2493C25.3309 40.5183 25.1741 40.721 24.9636 40.8575C24.7532 40.9901 24.497 41.0563 24.1953 41.0563Z" fill="#F0F6FA"/>
<path d="M27.112 40.9862C26.8499 40.9862 26.6494 40.9199 26.5104 40.7873C26.3754 40.6509 26.3079 40.4579 26.3079 40.2084V38.53H25.8493V37.9335H26.0875C26.2027 37.9335 26.2801 37.9082 26.3198 37.8575C26.3635 37.8029 26.3854 37.723 26.3854 37.6177V37.0973H27.0703V37.9335H27.7077V38.53H27.0703V40.3897H27.66V40.9862H27.112Z" fill="#F0F6FA"/>
<path d="M29.6978 41.0563C29.4754 41.0563 29.2749 41.0193 29.0962 40.9452C28.9214 40.8711 28.7706 40.7639 28.6435 40.6236C28.5204 40.4832 28.4251 40.3156 28.3576 40.1207C28.2901 39.9218 28.2563 39.6996 28.2563 39.454C28.2563 39.2084 28.2901 38.9881 28.3576 38.7932C28.4251 38.5982 28.5204 38.4325 28.6435 38.2961C28.7706 38.1557 28.9214 38.0485 29.0962 37.9745C29.2749 37.9004 29.4754 37.8633 29.6978 37.8633C29.9201 37.8633 30.1206 37.9004 30.2993 37.9745C30.478 38.0485 30.6289 38.1557 30.752 38.2961C30.8791 38.4325 30.9764 38.5982 31.0439 38.7932C31.1114 38.9881 31.1451 39.2084 31.1451 39.454C31.1451 39.6996 31.1114 39.9218 31.0439 40.1207C30.9764 40.3156 30.8791 40.4832 30.752 40.6236C30.6289 40.7639 30.478 40.8711 30.2993 40.9452C30.1206 41.0193 29.9201 41.0563 29.6978 41.0563ZM29.6978 40.454C29.9003 40.454 30.0591 40.3936 30.1743 40.2727C30.2894 40.1518 30.347 39.9745 30.347 39.7405V39.1733C30.347 38.9433 30.2894 38.7678 30.1743 38.647C30.0591 38.5261 29.9003 38.4657 29.6978 38.4657C29.4992 38.4657 29.3424 38.5261 29.2272 38.647C29.112 38.7678 29.0545 38.9433 29.0545 39.1733V39.7405C29.0545 39.9745 29.112 40.1518 29.2272 40.2727C29.3424 40.3936 29.4992 40.454 29.6978 40.454Z" fill="#F0F6FA"/>
<path d="M31.9402 40.9862V37.9335H32.7026V38.5651H32.7323C32.7522 38.4832 32.782 38.4053 32.8217 38.3312C32.8654 38.2532 32.921 38.185 32.9885 38.1265C33.056 38.068 33.1354 38.0212 33.2267 37.9862C33.322 37.9511 33.4312 37.9335 33.5543 37.9335H33.7211V38.6411H33.4828C33.2247 38.6411 33.0302 38.6782 32.8991 38.7522C32.7681 38.8263 32.7026 38.9472 32.7026 39.1148V40.9862H31.9402Z" fill="#F0F6FA"/>
<path d="M35.6253 41.0563C35.395 41.0563 35.1885 41.0193 35.0058 40.9452C34.8271 40.8672 34.6743 40.76 34.5472 40.6236C34.4241 40.4832 34.3288 40.3156 34.2613 40.1207C34.1938 39.9218 34.16 39.6996 34.16 39.454C34.16 39.2123 34.1918 38.994 34.2553 38.799C34.3228 38.6041 34.4181 38.4384 34.5412 38.3019C34.6643 38.1616 34.8152 38.0544 34.9939 37.9803C35.1726 37.9023 35.3751 37.8633 35.6015 37.8633C35.8437 37.8633 36.0541 37.9043 36.2328 37.9862C36.4115 38.068 36.5584 38.1791 36.6736 38.3195C36.7888 38.4598 36.8741 38.6236 36.9297 38.8107C36.9893 38.994 37.0191 39.1908 37.0191 39.4014V39.647H34.9522V39.723C34.9522 39.9452 35.0158 40.1246 35.1428 40.261C35.2699 40.3936 35.4585 40.4598 35.7087 40.4598C35.8993 40.4598 36.0541 40.4209 36.1733 40.3429C36.2964 40.2649 36.4056 40.1655 36.5009 40.0446L36.9118 40.4949C36.7848 40.6704 36.6101 40.8088 36.3877 40.9101C36.1693 41.0076 35.9152 41.0563 35.6253 41.0563ZM35.6134 38.4248C35.4109 38.4248 35.25 38.491 35.1309 38.6236C35.0118 38.7561 34.9522 38.9277 34.9522 39.1382V39.185H36.2269V39.1324C36.2269 38.9218 36.1733 38.7522 36.0661 38.6236C35.9628 38.491 35.8119 38.4248 35.6134 38.4248Z" fill="#F0F6FA"/>
<path d="M38.8275 41.0563C38.5297 41.0563 38.2795 41.0076 38.077 40.9101C37.8745 40.8088 37.6958 40.6704 37.5409 40.4949L38.0055 40.0505C38.1207 40.1791 38.2458 40.2805 38.3808 40.3546C38.5198 40.4286 38.6786 40.4657 38.8573 40.4657C39.0399 40.4657 39.171 40.4345 39.2504 40.3721C39.3338 40.3097 39.3755 40.224 39.3755 40.1148C39.3755 40.0251 39.3457 39.955 39.2861 39.9043C39.2305 39.8497 39.1333 39.8127 38.9943 39.7932L38.6845 39.7522C38.347 39.7094 38.0889 39.6158 37.9102 39.4715C37.7355 39.3234 37.6482 39.109 37.6482 38.8283C37.6482 38.6801 37.6759 38.5476 37.7315 38.4306C37.7871 38.3097 37.8665 38.2084 37.9698 38.1265C38.073 38.0407 38.1961 37.9764 38.3391 37.9335C38.486 37.8867 38.6488 37.8633 38.8275 37.8633C38.9784 37.8633 39.1114 37.875 39.2266 37.8984C39.3457 37.9179 39.4529 37.9491 39.5482 37.992C39.6435 38.031 39.7309 38.0817 39.8103 38.144C39.8897 38.2025 39.9671 38.2688 40.0426 38.3429L39.5959 38.7815C39.5045 38.6879 39.3953 38.6099 39.2683 38.5476C39.1412 38.4852 39.0022 38.454 38.8513 38.454C38.6845 38.454 38.5634 38.4832 38.488 38.5417C38.4165 38.6002 38.3808 38.6762 38.3808 38.7698C38.3808 38.8711 38.4106 38.9491 38.4701 39.0037C38.5337 39.0544 38.6389 39.0914 38.7858 39.1148L39.1015 39.1557C39.7726 39.2493 40.1081 39.5495 40.1081 40.0563C40.1081 40.2045 40.0763 40.3409 40.0128 40.4657C39.9532 40.5865 39.8679 40.6918 39.7567 40.7815C39.6455 40.8672 39.5105 40.9355 39.3517 40.9862C39.1968 41.0329 39.0221 41.0563 38.8275 41.0563Z" fill="#F0F6FA"/>
</svg>
